<svg width="16" height="17" viewBox="0 0 16 17" fill="none" xmlns="http://www.w3.org/2000/svg">
<g clip-path="url(#clip0_1_4267)">
<path d="M6.66663 1.58325V2.91659" stroke="#FFB3D1" stroke-width="1.33333" stroke-linecap="round" stroke-linejoin="round"/>
<path d="M9.33337 1.58325V2.91659" stroke="#FFB3D1" stroke-width="1.33333" stroke-linecap="round" stroke-linejoin="round"/>
<path d="M10.6667 5.58325C10.8435 5.58325 11.013 5.65349 11.1381 5.77851C11.2631 5.90354 11.3333 6.07311 11.3333 6.24992V11.5833C11.3333 12.2905 11.0524 12.9688 10.5523 13.4689C10.0522 13.969 9.37391 14.2499 8.66667 14.2499H4.66667C3.95942 14.2499 3.28115 13.969 2.78105 13.4689C2.28095 12.9688 2 12.2905 2 11.5833V6.24992C2 6.07311 2.07024 5.90354 2.19526 5.77851C2.32029 5.65349 2.48986 5.58325 2.66667 5.58325H12C12.7072 5.58325 13.3855 5.8642 13.8856 6.3643C14.3857 6.8644 14.6667 7.54267 14.6667 8.24992C14.6667 8.95716 14.3857 9.63544 13.8856 10.1355C13.3855 10.6356 12.7072 10.9166 12 10.9166H11.3333" stroke="#FFB3D1" stroke-width="1.33333" stroke-linecap="round" stroke-linejoin="round"/>
<path d="M4 1.58325V2.91659" stroke="#FFB3D1" stroke-width="1.33333" stroke-linecap="round" stroke-linejoin="round"/>
</g>
<defs>
<clipPath id="clip0_1_4267">
<rect width="16" height="16" fill="white" transform="translate(0 0.25)"/>
</clipPath>
</defs>
</svg>
