<svg width="24" height="25" viewBox="0 0 24 25" fill="none" xmlns="http://www.w3.org/2000/svg">
<path d="M10 2.75V4.75" stroke="white" stroke-width="2" stroke-linecap="round" stroke-linejoin="round"/>
<path d="M14 2.75V4.75" stroke="white" stroke-width="2" stroke-linecap="round" stroke-linejoin="round"/>
<path d="M16 8.75C16.2652 8.75 16.5196 8.85536 16.7071 9.04289C16.8946 9.23043 17 9.48478 17 9.75V17.75C17 18.8109 16.5786 19.8283 15.8284 20.5784C15.0783 21.3286 14.0609 21.75 13 21.75H7C5.93913 21.75 4.92172 21.3286 4.17157 20.5784C3.42143 19.8283 3 18.8109 3 17.75V9.75C3 9.48478 3.10536 9.23043 3.29289 9.04289C3.48043 8.85536 3.73478 8.75 4 8.75H18C19.0609 8.75 20.0783 9.17143 20.8284 9.92157C21.5786 10.6717 22 11.6891 22 12.75C22 13.8109 21.5786 14.8283 20.8284 15.5784C20.0783 16.3286 19.0609 16.75 18 16.75H17" stroke="white" stroke-width="2" stroke-linecap="round" stroke-linejoin="round"/>
<path d="M6 2.75V4.75" stroke="white" stroke-width="2" stroke-linecap="round" stroke-linejoin="round"/>
</svg>
