<svg width="32" height="33" viewBox="0 0 32 33" fill="none" xmlns="http://www.w3.org/2000/svg">
<path d="M20 29.5834V24.2501C20.1855 22.5798 19.7066 20.9036 18.6667 19.5834C22.6667 19.5834 26.6667 16.9167 26.6667 12.2501C26.7733 10.5834 26.3067 8.94341 25.3333 7.58341C25.7067 6.05008 25.7067 4.45008 25.3333 2.91675C25.3333 2.91675 24 2.91675 21.3333 4.91675C17.8133 4.25008 14.1867 4.25008 10.6667 4.91675C8.00001 2.91675 6.66668 2.91675 6.66668 2.91675C6.26668 4.45008 6.26668 6.05008 6.66668 7.58341C5.69584 8.93793 5.22464 10.5871 5.33334 12.2501C5.33334 16.9167 9.33334 19.5834 13.3333 19.5834C12.8133 20.2367 12.4267 20.9834 12.2 21.7834C11.9733 22.5834 11.9067 23.4234 12 24.2501V29.5834" stroke="white" stroke-width="2.66667" stroke-linecap="round" stroke-linejoin="round"/>
<path d="M12 24.2499C5.98663 26.9166 5.33329 21.5833 2.66663 21.5833" stroke="white" stroke-width="2.66667" stroke-linecap="round" stroke-linejoin="round"/>
</svg>
