<svg width="20" height="21" viewBox="0 0 20 21" fill="none" xmlns="http://www.w3.org/2000/svg">
<path d="M1.66663 8.58431C1.66664 7.65698 1.94795 6.75147 2.4734 5.98737C2.99885 5.22327 3.74372 4.63653 4.60963 4.30465C5.47554 3.97276 6.42176 3.91135 7.3233 4.12852C8.22485 4.34568 9.03931 4.83121 9.65913 5.52098C9.70278 5.56766 9.75556 5.60487 9.81419 5.63031C9.87282 5.65575 9.93605 5.66888 9.99996 5.66888C10.0639 5.66888 10.1271 5.65575 10.1857 5.63031C10.2444 5.60487 10.2971 5.56766 10.3408 5.52098C10.9587 4.82673 11.7733 4.33712 12.6763 4.11731C13.5793 3.89751 14.5279 3.95793 15.3957 4.29055C16.2635 4.62316 17.0094 5.21219 17.5342 5.97923C18.059 6.74627 18.3377 7.65495 18.3333 8.58431C18.3333 10.4926 17.0833 11.9176 15.8333 13.1676L11.2566 17.5951C11.1013 17.7735 10.9099 17.9167 10.695 18.0154C10.4801 18.1141 10.2467 18.1659 10.0102 18.1674C9.77374 18.1688 9.53967 18.12 9.32353 18.0241C9.1074 17.9282 8.91415 17.7873 8.75663 17.611L4.16663 13.1676C2.91663 11.9176 1.66663 10.501 1.66663 8.58431Z" stroke="white" stroke-width="1.66667" stroke-linecap="round" stroke-linejoin="round"/>
</svg>
