<svg width="24" height="25" viewBox="0 0 24 25" fill="none" xmlns="http://www.w3.org/2000/svg">
<path d="M2 10.25C2.00002 9.13724 2.33759 8.05062 2.96813 7.1337C3.59867 6.21678 4.49252 5.5127 5.53161 5.11444C6.5707 4.71618 7.70616 4.64248 8.78801 4.90308C9.86987 5.16368 10.8472 5.74632 11.591 6.57404C11.6434 6.63005 11.7067 6.67471 11.7771 6.70524C11.8474 6.73577 11.9233 6.75152 12 6.75152C12.0767 6.75152 12.1526 6.73577 12.2229 6.70524C12.2933 6.67471 12.3566 6.63005 12.409 6.57404C13.1504 5.74094 14.128 5.15341 15.2116 4.88964C16.2952 4.62588 17.4335 4.69839 18.4749 5.09752C19.5163 5.49666 20.4114 6.20349 21.0411 7.12394C21.6708 8.04439 22.0053 9.1348 22 10.25C22 12.54 20.5 14.25 19 15.75L13.508 21.063C13.3217 21.277 13.0919 21.449 12.834 21.5673C12.5762 21.6857 12.296 21.7479 12.0123 21.7497C11.7285 21.7515 11.4476 21.6929 11.1883 21.5778C10.9289 21.4627 10.697 21.2937 10.508 21.082L5 15.75C3.5 14.25 2 12.55 2 10.25Z" stroke="white" stroke-width="2" stroke-linecap="round" stroke-linejoin="round"/>
</svg>
