<svg width="17" height="17" viewBox="0 0 17 17" fill="none" xmlns="http://www.w3.org/2000/svg">
<path d="M1.75525 7.08344C1.75526 6.34158 1.98031 5.61716 2.40067 5.00588C2.82103 4.3946 3.41693 3.92521 4.10965 3.65971C4.80238 3.3942 5.55935 3.34507 6.28059 3.5188C7.00183 3.69254 7.6534 4.08096 8.14925 4.63277C8.18417 4.67012 8.2264 4.69989 8.2733 4.72024C8.3202 4.74059 8.37079 4.7511 8.42192 4.7511C8.47304 4.7511 8.52363 4.74059 8.57053 4.72024C8.61743 4.69989 8.65966 4.67012 8.69458 4.63277C9.18888 4.07737 9.8406 3.68569 10.563 3.50984C11.2854 3.334 12.0442 3.38234 12.7385 3.64843C13.4328 3.91452 14.0295 4.38574 14.4493 4.99938C14.8691 5.61301 15.0921 6.33995 15.0886 7.08344C15.0886 8.61011 14.0886 9.75011 13.0886 10.7501L9.42725 14.2921C9.30303 14.4348 9.14987 14.5494 8.97795 14.6283C8.80602 14.7072 8.61928 14.7487 8.43011 14.7499C8.24094 14.7511 8.05368 14.712 7.88077 14.6353C7.70787 14.5585 7.55327 14.4459 7.42725 14.3048L3.75525 10.7501C2.75525 9.75011 1.75525 8.61677 1.75525 7.08344Z" stroke="#FFB3D1" stroke-width="1.33333" stroke-linecap="round" stroke-linejoin="round"/>
</svg>
