<svg width="32" height="33" viewBox="0 0 32 33" fill="none" xmlns="http://www.w3.org/2000/svg">
<path d="M21.3333 10.9167C23.455 10.9167 25.4898 11.7596 26.9901 13.2599C28.4904 14.7602 29.3333 16.795 29.3333 18.9167V28.2501H23.9999V18.9167C23.9999 18.2095 23.719 17.5312 23.2189 17.0311C22.7188 16.531 22.0405 16.2501 21.3333 16.2501C20.626 16.2501 19.9477 16.531 19.4476 17.0311C18.9475 17.5312 18.6666 18.2095 18.6666 18.9167V28.2501H13.3333V18.9167C13.3333 16.795 14.1761 14.7602 15.6764 13.2599C17.1767 11.7596 19.2115 10.9167 21.3333 10.9167Z" stroke="white" stroke-width="2.66667" stroke-linecap="round" stroke-linejoin="round"/>
<path d="M8.00008 12.25H2.66675V28.25H8.00008V12.25Z" stroke="white" stroke-width="2.66667" stroke-linecap="round" stroke-linejoin="round"/>
<path d="M5.33341 8.25008C6.80617 8.25008 8.00008 7.05617 8.00008 5.58341C8.00008 4.11066 6.80617 2.91675 5.33341 2.91675C3.86066 2.91675 2.66675 4.11066 2.66675 5.58341C2.66675 7.05617 3.86066 8.25008 5.33341 8.25008Z" stroke="white" stroke-width="2.66667" stroke-linecap="round" stroke-linejoin="round"/>
</svg>
