<svg width="24" height="25" viewBox="0 0 24 25" fill="none" xmlns="http://www.w3.org/2000/svg">
<path d="M2.99206 17.0919C3.1391 17.4629 3.17183 17.8693 3.08606 18.2589L2.02106 21.5489C1.98674 21.7158 1.99561 21.8886 2.04683 22.0511C2.09805 22.2135 2.18992 22.3602 2.31372 22.4772C2.43753 22.5942 2.58917 22.6776 2.75426 22.7196C2.91935 22.7615 3.09242 22.7606 3.25706 22.7169L6.67006 21.7189C7.03777 21.646 7.41859 21.6779 7.76906 21.8109C9.90444 22.8082 12.3234 23.0191 14.5992 22.4067C16.875 21.7942 18.8613 20.3976 20.2078 18.4633C21.5542 16.529 22.1742 14.1813 21.9584 11.8345C21.7425 9.48763 20.7048 7.29241 19.0281 5.63613C17.3515 3.97986 15.1438 2.96898 12.7944 2.78183C10.4451 2.59469 8.10519 3.24332 6.1875 4.61328C4.26981 5.98323 2.89759 7.98648 2.31295 10.2696C1.72831 12.5527 1.96883 14.9689 2.99206 17.0919Z" stroke="white" stroke-width="2" stroke-linecap="round" stroke-linejoin="round"/>
</svg>
