<svg width="12" height="16" viewBox="0 0 12 16" fill="none" xmlns="http://www.w3.org/2000/svg">
<path d="M7.99998 14.6667V12C8.09273 11.1649 7.85327 10.3267 7.33332 9.66667C9.33332 9.66667 11.3333 8.33333 11.3333 6C11.3867 5.16667 11.1533 4.34667 10.6667 3.66667C10.8533 2.9 10.8533 2.1 10.6667 1.33333C10.6667 1.33333 9.99998 1.33333 8.66665 2.33333C6.90665 2 5.09332 2 3.33332 2.33333C1.99998 1.33333 1.33332 1.33333 1.33332 1.33333C1.13332 2.1 1.13332 2.9 1.33332 3.66667C0.8479 4.34392 0.612299 5.16852 0.666651 6C0.666651 8.33333 2.66665 9.66667 4.66665 9.66667C4.40665 9.99333 4.21332 10.3667 4.09998 10.7667C3.98665 11.1667 3.95332 11.5867 3.99998 12V14.6667" stroke="#D49CB8" stroke-width="1.33333" stroke-linecap="round" stroke-linejoin="round"/>
</svg>
