<svg width="17" height="17" viewBox="0 0 17 17" fill="none" xmlns="http://www.w3.org/2000/svg">
<g clip-path="url(#clip0_1_3902)">
<path d="M10.9374 14.9166V12.2499C11.0302 11.4148 10.7907 10.5767 10.2708 9.91658C12.2708 9.91658 14.2708 8.58325 14.2708 6.24992C14.3241 5.41659 14.0908 4.59659 13.6041 3.91659C13.7908 3.14992 13.7908 2.34992 13.6041 1.58325C13.6041 1.58325 12.9374 1.58325 11.6041 2.58325C9.84411 2.24992 8.03078 2.24992 6.27078 2.58325C4.93744 1.58325 4.27078 1.58325 4.27078 1.58325C4.07078 2.34992 4.07078 3.14992 4.27078 3.91659C3.78536 4.59384 3.54976 5.41844 3.60411 6.24992C3.60411 8.58325 5.60411 9.91658 7.60411 9.91658C7.34411 10.2433 7.15078 10.6166 7.03744 11.0166C6.92411 11.4166 6.89078 11.8366 6.93744 12.2499V14.9166" stroke="#D1B3FF" stroke-width="1.33333" stroke-linecap="round" stroke-linejoin="round"/>
<path d="M6.93754 12.2501C3.93087 13.5834 3.60421 10.9167 2.27087 10.9167" stroke="#D1B3FF" stroke-width="1.33333" stroke-linecap="round" stroke-linejoin="round"/>
</g>
<defs>
<clipPath id="clip0_1_3902">
<rect width="16" height="16" fill="white" transform="translate(0.9375 0.25)"/>
</clipPath>
</defs>
</svg>
