<svg width="13" height="12" viewBox="0 0 13 12" fill="none" xmlns="http://www.w3.org/2000/svg">
<g clip-path="url(#clip0_1_4039)">
<path d="M1.96875 4.75002C1.96876 4.19362 2.13755 3.65031 2.45282 3.19185C2.76809 2.73339 3.21501 2.38135 3.73455 2.18222C4.2541 1.98309 4.82183 1.94624 5.36276 2.07654C5.90368 2.20684 6.39236 2.49816 6.76425 2.91202C6.79044 2.94003 6.82211 2.96236 6.85729 2.97762C6.89247 2.99289 6.9304 3.00076 6.96875 3.00076C7.0071 3.00076 7.04503 2.99289 7.08021 2.97762C7.11539 2.96236 7.14706 2.94003 7.17325 2.91202C7.54397 2.49547 8.03276 2.2017 8.57457 2.06982C9.11637 1.93794 9.6855 1.97419 10.2062 2.17376C10.7269 2.37333 11.1744 2.72675 11.4893 3.18697C11.8042 3.6472 11.9714 4.1924 11.9688 4.75002C11.9688 5.89502 11.2188 6.75002 10.4688 7.50002L7.72275 10.1565C7.62958 10.2635 7.51471 10.3495 7.38577 10.4087C7.25683 10.4679 7.11677 10.4989 6.97489 10.4998C6.83302 10.5007 6.69257 10.4714 6.56289 10.4139C6.43321 10.3563 6.31726 10.2718 6.22275 10.166L3.46875 7.50002C2.71875 6.75002 1.96875 5.90002 1.96875 4.75002Z" stroke="white" stroke-linecap="round" stroke-linejoin="round"/>
</g>
<defs>
<clipPath id="clip0_1_4039">
<rect width="12" height="12" fill="white" transform="translate(0.96875)"/>
</clipPath>
</defs>
</svg>
