<svg width="17" height="16" viewBox="0 0 17 16" fill="none" xmlns="http://www.w3.org/2000/svg">
<path d="M14.2557 8.324C14.1932 9.48143 13.7968 10.596 13.1144 11.5329C12.432 12.4699 11.4928 13.1891 10.4104 13.6037C9.32792 14.0183 8.14857 14.1104 7.01486 13.869C5.88116 13.6276 4.84165 13.063 4.02199 12.2434C3.20233 11.4239 2.63761 10.3844 2.39609 9.25074C2.15458 8.11706 2.24661 6.9377 2.66107 5.85521C3.07552 4.77273 3.79465 3.83346 4.73153 3.15096C5.66841 2.46846 6.78293 2.07194 7.94035 2.00933C8.21035 1.99467 8.35168 2.316 8.20835 2.54467C7.72894 3.3117 7.52366 4.21858 7.62601 5.1173C7.72836 6.01602 8.1323 6.85352 8.7719 7.49312C9.4115 8.13272 10.249 8.53665 11.1477 8.639C12.0464 8.74135 12.9533 8.53607 13.7203 8.05667C13.9497 7.91333 14.2703 8.054 14.2557 8.324Z" stroke="#F8F9FA" stroke-width="1.33333" stroke-linecap="round" stroke-linejoin="round"/>
</svg>
