<svg width="12" height="13" viewBox="0 0 12 13" fill="none" xmlns="http://www.w3.org/2000/svg">
<g clip-path="url(#clip0_1_4212)">
<path d="M5.50848 1.90701C5.5299 1.79231 5.59076 1.68871 5.68053 1.61417C5.77029 1.53962 5.88329 1.49881 5.99998 1.49881C6.11666 1.49881 6.22967 1.53962 6.31943 1.61417C6.40919 1.68871 6.47005 1.79231 6.49148 1.90701L7.01698 4.68601C7.0543 4.88358 7.15031 5.06532 7.29249 5.20749C7.43467 5.34967 7.6164 5.44568 7.81398 5.48301L10.593 6.00851C10.7077 6.02993 10.8113 6.09079 10.8858 6.18056C10.9604 6.27032 11.0012 6.38333 11.0012 6.50001C11.0012 6.61669 10.9604 6.7297 10.8858 6.81946C10.8113 6.90922 10.7077 6.97008 10.593 6.99151L7.81398 7.51701C7.6164 7.55433 7.43467 7.65035 7.29249 7.79252C7.15031 7.9347 7.0543 8.11643 7.01698 8.31401L6.49148 11.093C6.47005 11.2077 6.40919 11.3113 6.31943 11.3858C6.22967 11.4604 6.11666 11.5012 5.99998 11.5012C5.88329 11.5012 5.77029 11.4604 5.68053 11.3858C5.59076 11.3113 5.5299 11.2077 5.50848 11.093L4.98298 8.31401C4.94565 8.11643 4.84964 7.9347 4.70746 7.79252C4.56529 7.65035 4.38355 7.55433 4.18598 7.51701L1.40698 6.99151C1.29228 6.97008 1.18868 6.90922 1.11414 6.81946C1.03959 6.7297 0.998779 6.61669 0.998779 6.50001C0.998779 6.38333 1.03959 6.27032 1.11414 6.18056C1.18868 6.09079 1.29228 6.02993 1.40698 6.00851L4.18598 5.48301C4.38355 5.44568 4.56529 5.34967 4.70746 5.20749C4.84964 5.06532 4.94565 4.88358 4.98298 4.68601L5.50848 1.90701Z" stroke="white" stroke-linecap="round" stroke-linejoin="round"/>
<path d="M10 1.5V3.5" stroke="white" stroke-linecap="round" stroke-linejoin="round"/>
<path d="M11 2.5H9" stroke="white" stroke-linecap="round" stroke-linejoin="round"/>
<path d="M2 11.5C2.55228 11.5 3 11.0523 3 10.5C3 9.94772 2.55228 9.5 2 9.5C1.44772 9.5 1 9.94772 1 10.5C1 11.0523 1.44772 11.5 2 11.5Z" stroke="white" stroke-linecap="round" stroke-linejoin="round"/>
</g>
<defs>
<clipPath id="clip0_1_4212">
<rect width="12" height="12" fill="white" transform="translate(0 0.5)"/>
</clipPath>
</defs>
</svg>
